<svg width="210" height="212" viewBox="0 0 210 212" fill="none" xmlns="http://www.w3.org/2000/svg">
<path d="M48.2695 186V46H112.27C125.07 46 136.07 48.0667 145.27 52.2C154.603 56.3333 161.803 62.3333 166.87 70.2C171.936 77.9333 174.47 87.1333 174.47 97.8C174.47 108.333 171.936 117.467 166.87 125.2C161.803 132.933 154.603 138.933 145.27 143.2C136.07 147.333 125.07 149.4 112.27 149.4H70.2695L87.8695 132.2V186H48.2695ZM87.8695 136.4L70.2695 118.2H109.87C118.136 118.2 124.27 116.4 128.27 112.8C132.403 109.2 134.47 104.2 134.47 97.8C134.47 91.2667 132.403 86.2 128.27 82.6C124.27 79 118.136 77.2 109.87 77.2H70.2695L87.8695 59V136.4Z" fill="#253EE7" fill-opacity="0.98"/>
<path d="M106.27 30C118.936 30 129.936 32.1333 139.27 36.4C148.603 40.5333 155.803 46.5333 160.87 54.4C165.936 62.1333 168.47 71.2667 168.47 81.8C168.47 92.3333 165.936 101.467 160.87 109.2C155.803 116.933 148.603 122.933 139.27 127.2C129.936 131.333 118.936 133.4 106.27 133.4H81.8695V170H42.2695V30H106.27ZM103.87 102.2C112.003 102.2 118.136 100.467 122.27 97C126.403 93.4 128.47 88.3333 128.47 81.8C128.47 75.2667 126.403 70.2 122.27 66.6C118.136 63 112.003 61.2 103.87 61.2H81.8695V102.2H103.87Z" fill="#F55139" fill-opacity="0.98"/>
</svg>
